<svg xmlns="http://www.w3.org/2000/svg" viewBox="0 0 100 100">
  <path d="m35.246 7.6133c-6.5938 0-11.977 5.3516-11.977 11.926 0 4.3555 2.3672 8.1797 5.8789 10.266-5.9219 2.3984-10.098 8.1875-10.098 14.949v0.10938c-5.9219 0.71094-10.547 5.7578-10.547 11.852 0 4.3555 2.3672 8.1758 5.8789 10.258-5.918 2.3984-10.094 8.1836-10.094 14.945v9.0469h-0.003906c0.003906 0.78906 0.64453 1.4258 1.4336 1.4219 0.78516-0.003907 1.4219-0.63672 1.4258-1.4219v-9.0469c0-7.375 5.9258-13.277 13.34-13.277s13.328 5.8984 13.328 13.277v9.0469c0 0.66797 0.46484 1.2422 1.1133 1.3867 0.10547 0.023438 0.21094 0.035157 0.32031 0.035157 0.78516 0 1.4219-0.63672 1.4258-1.4219v-9.0508c0-7.375 5.9141-13.277 13.328-13.277s13.34 5.8984 13.34 13.277v9.0508c0.003906 0.78516 0.63672 1.418 1.4219 1.4219 0.37891 0 0.74219-0.14844 1.0117-0.41406 0.26953-0.26562 0.42187-0.62891 0.42187-1.0078v-9.0508c0-7.375 5.918-13.277 13.332-13.277 7.4141 0 13.328 5.8984 13.328 13.277v9.0508c0.003906 0.37891 0.15625 0.74219 0.42578 1.0078 0.26562 0.26562 0.63281 0.41406 1.0117 0.41406 0.78125-0.003907 1.418-0.63672 1.4219-1.4219v-9.0508c0-6.7617-4.168-12.551-10.086-14.949 3.5078-2.082 5.8672-5.8984 5.8672-10.254 0-6.0898-4.6133-11.141-10.531-11.852v-0.10938c0-6.7617-4.1797-12.551-10.098-14.949 3.5117-2.0859 5.8789-5.9102 5.8789-10.266 0-6.5742-5.3906-11.926-11.98-11.926-6.5938 0-11.969 5.3516-11.969 11.926 0 4.3555 2.3633 8.1797 5.875 10.266-3.8477 1.5586-6.957 4.5508-8.6602 8.3086-1.7031-3.7578-4.8164-6.75-8.6602-8.3086 3.5117-2.0859 5.8711-5.9102 5.8711-10.266 0-6.5742-5.3789-11.926-11.969-11.926zm0 2.8555c5.0547 0 9.1133 4.043 9.1133 9.0664 0 5.0234-4.0586 9.0781-9.1133 9.0781-5.0547 0-9.1211-4.0547-9.1211-9.0781 0-5.0234 4.0664-9.0664 9.1211-9.0664zm29.516 0c5.0547 0 9.125 4.043 9.125 9.0664 0 5.0234-4.0703 9.0781-9.125 9.0781-5.0547 0-9.1094-4.0547-9.1094-9.0781 0-5.0234 4.0547-9.0664 9.1094-9.0664zm-29.516 21.008c7.4141 0 13.332 5.8984 13.332 13.277v0.10547c-5.9258 0.70703-10.547 5.7578-10.547 11.852 0 4.3555 2.3594 8.1719 5.8672 10.254-3.8438 1.5586-6.9492 4.5508-8.6562 8.3086h-0.003907c-1.7031-3.7578-4.8125-6.75-8.6562-8.3086 3.5078-2.082 5.8672-5.8984 5.8672-10.254 0-6.0938-4.6211-11.148-10.547-11.852v-0.10547c0-7.375 5.9258-13.277 13.34-13.277zm29.516 0c7.4141 0 13.34 5.8984 13.34 13.277v0.10547c-5.9258 0.70703-10.543 5.7578-10.543 11.852 0 4.3555 2.3594 8.1719 5.8672 10.254-3.8438 1.5586-6.9531 4.5508-8.6562 8.3086h-0.003906c-1.707-3.7578-4.8164-6.75-8.6641-8.3086 3.5117-2.082 5.875-5.8984 5.875-10.254 0-6.0898-4.6211-11.141-10.543-11.852v-0.10938c0-7.375 5.9141-13.277 13.328-13.277zm-44.281 16.156c5.0547 0 9.1133 4.0547 9.1133 9.0781 0 5.0234-4.0586 9.0664-9.1133 9.0664-5.0547 0-9.1211-4.043-9.1211-9.0664 0-5.0234 4.0664-9.0781 9.1211-9.0781zm29.516 0c5.0547 0 9.1211 4.0547 9.1211 9.0781 0 5.0234-4.0664 9.0664-9.1211 9.0664-5.0547 0-9.1133-4.043-9.1133-9.0664 0-5.0234 4.0586-9.0781 9.1133-9.0781zm29.527 0c5.0547 0 9.1094 4.0547 9.1094 9.0781 0 5.0234-4.0547 9.0664-9.1094 9.0664-5.0547 0-9.1133-4.043-9.1133-9.0664 0-5.0234 4.0586-9.0781 9.1133-9.0781z"/>
</svg>
